<?xml version="1.0" encoding="UTF-8"?>
<svg id="Capa_2" xmlns="http://www.w3.org/2000/svg" viewBox="0 0 687.81 1049.39">
  <defs>
    <style>
      .cls-1 {
        fill: #2b2b2b;
      }
    </style>
  </defs>
  <g id="Capa_1-2" data-name="Capa_1">
    <g>
      <g>
        <path class="cls-1" d="M667.57,930.89c6.22,3.64,11.15,8.54,14.79,14.71,3.63,6.18,5.45,12.85,5.45,20.02s-1.82,14-5.45,20.17c-3.64,6.17-8.54,11.08-14.72,14.71-6.18,3.64-12.9,5.46-20.17,5.46s-13.99-1.82-20.17-5.46c-6.18-3.63-11.06-8.54-14.64-14.71-3.58-6.17-5.38-12.9-5.38-20.17s1.8-13.99,5.38-20.16c3.59-6.17,8.47-11.06,14.64-14.64,6.17-3.59,12.9-5.38,20.17-5.38s13.87,1.82,20.1,5.45ZM662.12,990.95c4.48-2.63,8.04-6.2,10.69-10.68,2.63-4.48,3.96-9.36,3.96-14.64s-1.32-10.01-3.96-14.49c-2.64-4.48-6.2-8.04-10.69-10.68-4.48-2.63-9.36-3.96-14.64-3.96s-10.16,1.3-14.64,3.89c-4.48,2.6-8.02,6.13-10.6,10.61-2.59,4.48-3.89,9.36-3.89,14.64s1.29,10.16,3.89,14.64c2.59,4.48,6.12,8.05,10.6,10.68,4.48,2.64,9.36,3.96,14.64,3.96s10.16-1.32,14.64-3.96ZM664.55,979.33h-7.88l-7.87-9.2h-10.66v9.2h-6.18v-28.46h20.11c3.63,0,6.56.87,8.78,2.61,2.22,1.74,3.33,4.02,3.33,6.84v.12c0,2.5-.71,4.54-2.12,6.12-1.41,1.58-3.41,2.65-6,3.21l8.48,9.57ZM656.31,956.62c-1.05-.52-2.79-.78-5.21-.78-.48,0-1.66.04-3.51.12-1.86.08-5.01.12-9.45.12v8.96h12.96c2.42,0,4.16-.24,5.21-.73,1.05-.49,1.57-1.7,1.57-3.64,0-2.18-.53-3.53-1.57-4.06Z"/>
        <g>
          <path class="cls-1" d="M62.53,1000.34v-18.37h53.6v64.73h-16.52l-3.2-15.85c-8.65,12.37-21.69,18.54-39.1,18.54s-31.18-5.73-41.63-17.19C5.23,1020.74,0,1005.57,0,986.69s5.34-34.1,16.01-45.67c10.67-11.35,25.11-17.03,43.32-17.03,15.06,0,27.59,3.82,37.59,11.47,9.89,7.64,15.84,18.03,17.87,31.18h-23.43c-1.69-7.08-5.37-12.64-11.04-16.69-5.68-4.05-12.62-6.07-20.82-6.07-11.01,0-19.72,3.82-26.13,11.47-6.4,7.64-9.61,18.1-9.61,31.35s3.26,23.71,9.78,31.36c6.52,7.64,15.45,11.46,26.8,11.46,8.99,0,16.69-2.7,23.09-8.09,6.41-5.39,9.89-12.41,10.45-21.07h-31.35Z"/>
          <path class="cls-1" d="M228.9,1014.84l1.01,17.87c.11,5.73,1.35,10.39,3.71,13.99h-23.43c-2.02-3.37-3.09-8.14-3.2-14.33l-.51-13.15c-.34-7.3-2-12.39-4.97-15.25-2.98-2.86-7.73-4.3-14.24-4.3h-29.67v47.03h-22.75v-120.01h54.44c13.37,0,23.77,3.03,31.18,9.1,7.42,6.07,11.12,14.33,11.12,24.78,0,14.38-6.69,23.93-20.06,28.65,6.07,1.91,10.42,4.92,13.06,9.02,2.64,4.11,4.07,9.64,4.3,16.6ZM157.6,945.39v36.41h30.34c6.41,0,11.38-1.6,14.92-4.81,3.54-3.2,5.31-7.83,5.31-13.91,0-5.73-1.83-10.11-5.48-13.14-3.65-3.03-8.85-4.55-15.59-4.55h-29.5Z"/>
          <path class="cls-1" d="M302.72,1049.39c-17.98,0-32.48-5.73-43.49-17.19-11.01-11.57-16.52-26.74-16.52-45.51s5.5-33.93,16.52-45.51c11.01-11.46,25.51-17.19,43.49-17.19s32.47,5.74,43.49,17.19c10.9,11.36,16.35,26.52,16.35,45.51s-5.45,34.16-16.35,45.51c-11.01,11.47-25.51,17.19-43.49,17.19ZM266.48,986.69c0,13.15,3.31,23.54,9.95,31.18,6.63,7.64,15.39,11.47,26.29,11.47s19.83-3.82,26.46-11.47c6.52-7.52,9.78-17.92,9.78-31.18s-3.26-23.65-9.78-31.18c-6.63-7.63-15.45-11.46-26.46-11.46s-19.67,3.82-26.29,11.46c-6.63,7.65-9.95,18.04-9.95,31.18Z"/>
          <path class="cls-1" d="M426.61,1049.23c-15.62,0-27.9-4.19-36.83-12.56-8.93-8.37-13.4-20.08-13.4-35.14v-74.84h22.75v75c0,9.11,2.36,16.02,7.08,20.74,4.72,4.72,11.52,7.08,20.4,7.08s15.68-2.36,20.4-7.08c4.72-4.72,7.08-11.63,7.08-20.74v-75h22.75v74.84c0,15.28-4.44,27.05-13.32,35.31-8.88,8.26-21.18,12.39-36.91,12.39Z"/>
          <path class="cls-1" d="M495.55,926.69h52.76c13.37,0,23.79,3.51,31.27,10.53,7.47,7.03,11.21,16.55,11.21,28.57s-3.74,21.38-11.21,28.4c-7.47,7.02-17.9,10.54-31.27,10.54h-30v41.97h-22.75v-120.01ZM518.3,985.17h28.99c6.63,0,11.71-1.66,15.25-4.97,3.54-3.32,5.31-8.12,5.31-14.42s-1.77-11.12-5.31-14.49c-3.54-3.37-8.63-5.06-15.25-5.06h-28.99v38.94Z"/>
        </g>
      </g>
      <path class="cls-1" d="M0,0h382.25c101.04,0,176.52,29.22,227.65,81.57,48.69,49.91,77.91,118.08,77.91,198.43,0,164.35-108.35,275.12-290.95,275.12h-214.26v315.3H0V0ZM182.61,411.47h182.61c92.52,0,141.21-51.13,141.21-130.26s-51.13-127.82-138.78-127.82h-185.04v258.08Z"/>
    </g>
  </g>
</svg>