<?xml version="1.0" encoding="UTF-8"?>
<svg id="Capa_2" xmlns="http://www.w3.org/2000/svg" viewBox="0 0 1303.81 322.3">
  <defs>
    <style>
      .cls-1 {
        fill: #2b2b2b;
      }
    </style>
  </defs>
  <g id="Capa_1-2" data-name="Capa_1">
    <g>
      <path class="cls-1" d="M346.6,216.16v-88.01c0-40.46-20.91-63.73-72.83-63.73s-73.17,26.64-74.52,56.99h40.8c1.35-16.52,11.8-24.28,33.38-24.28,19.22,0,29,8.09,29,20.57,0,13.15-13.15,15.51-41.81,19.56-38.44,5.4-69.46,17.53-69.46,55.64,0,34.39,24.95,52.94,60.36,52.94,29.67,0,42.15-10.11,50.92-23.27h.67c1.01,7.76,2.7,15.85,5.39,19.22h44.17v-1.69c-4.05-3.04-6.07-10.79-6.07-23.94ZM303.44,180.75c0,16.86-14.5,33.04-40.8,33.04-16.19,0-26.98-5.73-26.98-21.92s11.8-21.58,35.74-26.98c11.46-2.7,23.94-5.4,32.03-10.11v25.96Z"/>
      <path class="cls-1" d="M464.29,64.08c-23.6,0-39.45,9.78-51.25,28.32h-1.01v-23.6h-44.85v172.98h45.86v-98.12c0-23.6,14.84-39.79,35.07-39.79s30.01,13.15,30.01,31.7v106.22h45.86v-112.96c0-37.77-23.94-64.74-59.68-64.74Z"/>
      <path class="cls-1" d="M599.18,190.87v-91.72h30.57v-30.35h-30.57V14.85h-44.85v53.95h-23.94v30.35h23.94v101.5c0,32.71,24.62,41.47,46.87,41.47,18.21,0,28.66-.67,28.66-.67v-33.72s-7.76.34-13.49.34c-10.12,0-17.2-4.38-17.2-17.2Z"/>
      <path class="cls-1" d="M741.14,64.08c-23.6,0-37.76,9.1-50.24,27.31h-1.01V.69h-45.86v241.09h45.86v-98.12c0-23.6,14.84-39.79,35.07-39.79s30.01,13.15,30.01,31.7v106.22h45.86v-112.96c0-37.77-23.94-64.74-59.68-64.74Z"/>
      <path class="cls-1" d="M899.96,64.08c-50.58,0-85.31,39.79-85.31,91.04s32.37,91.72,89.69,91.72c44.51,0,71.82-25.96,78.23-56.65h-45.18c-5.06,13.15-15.51,21.24-33.38,21.24-25.97,0-40.8-16.52-44.17-43.16h125.44c0-61.71-29.67-104.19-85.31-104.19ZM860.51,136.58c4.05-22.59,15.85-37.09,40.13-37.09,20.9,0,35.41,15.17,36.75,37.09h-76.88Z"/>
      <path class="cls-1" d="M1045.64,96.46h-1.01v-27.65h-44.17v172.98h45.86v-84.3c0-36.42,21.58-52.27,51.59-49.23h1.01v-40.13c-2.7-1.01-5.73-1.35-10.79-1.35-20.23,0-32.03,10.11-42.48,29.67Z"/>
      <path class="cls-1" d="M1254.7,216.16v-88.01c0-40.46-20.91-63.73-72.83-63.73s-73.17,26.64-74.52,56.99h40.8c1.35-16.52,11.8-24.28,33.38-24.28,19.22,0,29,8.09,29,20.57,0,13.15-13.15,15.51-41.81,19.56-38.44,5.4-69.46,17.53-69.46,55.64,0,34.39,24.95,52.94,60.36,52.94,29.67,0,42.15-10.11,50.92-23.27h.67c1.01,7.76,2.7,15.85,5.39,19.22h44.17v-1.69c-4.05-3.04-6.07-10.79-6.07-23.94ZM1211.54,180.75c0,16.86-14.5,33.04-40.8,33.04-16.19,0-26.98-5.73-26.98-21.92s11.8-21.58,35.74-26.98c11.46-2.7,23.94-5.4,32.03-10.11v25.96Z"/>
      <g>
        <path class="cls-1" d="M1294.88,270.04c2.74,1.61,4.92,3.77,6.52,6.49,1.6,2.73,2.4,5.67,2.4,8.83s-.8,6.17-2.4,8.9c-1.6,2.72-3.77,4.89-6.49,6.49-2.72,1.61-5.69,2.41-8.9,2.41s-6.17-.8-8.9-2.41c-2.72-1.6-4.88-3.77-6.46-6.49-1.58-2.72-2.37-5.69-2.37-8.9s.79-6.17,2.37-8.89c1.58-2.72,3.73-4.88,6.46-6.46,2.72-1.58,5.69-2.37,8.9-2.37s6.12.8,8.86,2.4ZM1292.48,296.52c1.98-1.16,3.55-2.73,4.71-4.71,1.16-1.98,1.75-4.13,1.75-6.46s-.58-4.41-1.75-6.39c-1.17-1.97-2.73-3.55-4.71-4.71-1.98-1.16-4.13-1.75-6.46-1.75s-4.48.57-6.46,1.71c-1.98,1.14-3.54,2.7-4.68,4.68-1.14,1.97-1.71,4.13-1.71,6.46s.57,4.48,1.71,6.46c1.14,1.98,2.7,3.55,4.68,4.71,1.98,1.17,4.13,1.75,6.46,1.75s4.48-.58,6.46-1.75ZM1293.55,291.4h-3.47l-3.47-4.06h-4.7v4.06h-2.73v-12.55h8.87c1.6,0,2.89.38,3.87,1.15.98.77,1.47,1.77,1.47,3.02v.05c0,1.1-.31,2-.93,2.7s-1.5,1.17-2.64,1.41l3.74,4.22ZM1289.92,281.38c-.46-.23-1.23-.35-2.3-.35-.21,0-.73.02-1.55.05-.82.04-2.21.05-4.17.05v3.95h5.72c1.07,0,1.83-.11,2.3-.32.46-.21.69-.75.69-1.6,0-.96-.23-1.56-.69-1.79Z"/>
        <g>
          <path class="cls-1" d="M1028.03,300.67v-8.1h23.64v28.55h-7.29l-1.41-6.99c-3.82,5.45-9.57,8.18-17.25,8.18s-13.75-2.53-18.36-7.58c-4.61-5.05-6.91-11.75-6.91-20.07s2.35-15.04,7.06-20.14c4.71-5.01,11.08-7.51,19.11-7.51,6.64,0,12.17,1.69,16.58,5.06,4.36,3.37,6.99,7.95,7.88,13.75h-10.33c-.74-3.12-2.37-5.58-4.87-7.36-2.5-1.79-5.56-2.68-9.18-2.68-4.86,0-8.7,1.69-11.52,5.06-2.82,3.37-4.24,7.98-4.24,13.83s1.44,10.46,4.31,13.83c2.87,3.37,6.81,5.05,11.82,5.05,3.96,0,7.36-1.19,10.18-3.57,2.83-2.38,4.36-5.48,4.61-9.29h-13.83Z"/>
          <path class="cls-1" d="M1101.41,307.06l.45,7.88c.05,2.53.59,4.58,1.64,6.17h-10.33c-.89-1.49-1.36-3.59-1.41-6.32l-.22-5.8c-.15-3.22-.88-5.46-2.19-6.73-1.31-1.26-3.41-1.9-6.28-1.9h-13.08v20.74h-10.04v-52.93h24.01c5.9,0,10.48,1.34,13.75,4.01,3.27,2.68,4.91,6.32,4.91,10.93,0,6.34-2.95,10.56-8.85,12.64,2.68.84,4.6,2.17,5.76,3.98,1.16,1.81,1.8,4.25,1.9,7.32ZM1069.96,276.43v16.06h13.38c2.83,0,5.02-.71,6.58-2.12,1.56-1.41,2.34-3.46,2.34-6.13,0-2.53-.81-4.46-2.42-5.8-1.61-1.34-3.9-2.01-6.88-2.01h-13.01Z"/>
          <path class="cls-1" d="M1133.97,322.3c-7.93,0-14.32-2.53-19.18-7.58-4.86-5.1-7.29-11.79-7.29-20.07s2.43-14.97,7.29-20.07c4.86-5.05,11.25-7.58,19.18-7.58s14.32,2.53,19.18,7.58c4.81,5.01,7.21,11.7,7.21,20.07s-2.4,15.07-7.21,20.07c-4.86,5.06-11.25,7.58-19.18,7.58ZM1117.98,294.64c0,5.8,1.46,10.38,4.39,13.75,2.92,3.37,6.79,5.06,11.6,5.06s8.75-1.69,11.67-5.06c2.87-3.32,4.31-7.91,4.31-13.75s-1.44-10.43-4.31-13.75c-2.92-3.37-6.82-5.05-11.67-5.05s-8.67,1.69-11.6,5.05c-2.92,3.37-4.39,7.96-4.39,13.75Z"/>
          <path class="cls-1" d="M1188.61,322.23c-6.89,0-12.3-1.85-16.24-5.54-3.94-3.69-5.91-8.86-5.91-15.5v-33.01h10.04v33.08c0,4.02,1.04,7.06,3.12,9.15,2.08,2.08,5.08,3.12,9,3.12s6.91-1.04,9-3.12c2.08-2.08,3.12-5.13,3.12-9.15v-33.08h10.04v33.01c0,6.74-1.96,11.93-5.87,15.57-3.92,3.64-9.34,5.47-16.28,5.47Z"/>
          <path class="cls-1" d="M1219.01,268.18h23.27c5.9,0,10.49,1.55,13.79,4.64,3.3,3.1,4.94,7.3,4.94,12.6s-1.65,9.43-4.94,12.53c-3.3,3.1-7.89,4.65-13.79,4.65h-13.23v18.51h-10.04v-52.93ZM1229.05,293.98h12.79c2.92,0,5.17-.73,6.73-2.19,1.56-1.46,2.34-3.58,2.34-6.36s-.78-4.91-2.34-6.39c-1.56-1.49-3.8-2.23-6.73-2.23h-12.79v17.18Z"/>
        </g>
      </g>
      <path class="cls-1" d="M0,0h106.18c28.07,0,49.03,8.12,63.24,22.66,13.53,13.87,21.64,32.8,21.64,55.12,0,45.65-30.1,76.42-80.82,76.42h-59.52v87.59H0V0ZM50.72,114.3h50.72c25.7,0,39.23-14.2,39.23-36.18s-14.2-35.51-38.55-35.51h-51.4v71.69Z"/>
    </g>
  </g>
</svg>