<?xml version="1.0" encoding="UTF-8"?>
<svg id="Capa_2" xmlns="http://www.w3.org/2000/svg" viewBox="0 0 1227.81 226.36">
  <defs>
    <style>
      .cls-1 {
        fill: #2b2b2b;
      }
    </style>
  </defs>
  <g id="Capa_1-2" data-name="Capa_1">
    <g>
      <path class="cls-1" d="M317.85,198.23v-80.71c0-37.11-19.17-58.44-66.79-58.44s-67.1,24.43-68.34,52.26h37.41c1.24-15.15,10.82-22.26,30.61-22.26,17.62,0,26.59,7.42,26.59,18.86,0,12.06-12.06,14.22-38.34,17.93-35.25,4.95-63.7,16.08-63.7,51.02,0,31.54,22.88,48.55,55.35,48.55,27.21,0,38.65-9.28,46.69-21.34h.62c.93,7.11,2.47,14.53,4.95,17.63h40.51v-1.55c-3.71-2.78-5.57-9.9-5.57-21.95ZM278.27,165.76c0,15.46-13.3,30.3-37.41,30.3-14.84,0-24.74-5.26-24.74-20.1s10.82-19.79,32.78-24.74c10.51-2.47,21.96-4.95,29.38-9.28v23.81Z"/>
      <path class="cls-1" d="M425.77,58.77c-21.64,0-36.18,8.97-47,25.97h-.93v-21.65h-41.13v158.63h42.05v-89.98c0-21.65,13.61-36.49,32.16-36.49s27.52,12.06,27.52,29.07v97.4h42.05v-103.59c0-34.63-21.96-59.37-54.73-59.37Z"/>
      <path class="cls-1" d="M549.46,175.03v-84.11h28.04v-27.83h-28.04V13.62h-41.12v49.48h-21.96v27.83h21.96v93.07c0,29.99,22.57,38.03,42.98,38.03,16.7,0,26.28-.62,26.28-.62v-30.92s-7.11.31-12.37.31c-9.28,0-15.77-4.02-15.77-15.77Z"/>
      <path class="cls-1" d="M679.65,58.77c-21.64,0-34.63,8.35-46.07,25.05h-.93V.63h-42.05v221.09h42.05v-89.98c0-21.65,13.61-36.49,32.16-36.49s27.52,12.06,27.52,29.07v97.4h42.05v-103.59c0-34.63-21.96-59.37-54.73-59.37Z"/>
      <path class="cls-1" d="M825.29,58.77c-46.38,0-78.23,36.49-78.23,83.49s29.69,84.11,82.25,84.11c40.82,0,65.86-23.81,71.74-51.95h-41.43c-4.64,12.06-14.22,19.48-30.61,19.48-23.81,0-37.42-15.15-40.51-39.58h115.03c0-56.59-27.21-95.55-78.23-95.55ZM789.12,125.25c3.71-20.72,14.53-34.01,36.8-34.01,19.17,0,32.47,13.91,33.7,34.01h-70.5Z"/>
      <path class="cls-1" d="M958.88,88.45h-.93v-25.36h-40.51v158.63h42.05v-77.3c0-33.4,19.79-47.93,47.31-45.15h.93v-36.8c-2.47-.93-5.26-1.24-9.9-1.24-18.55,0-29.37,9.28-38.96,27.21Z"/>
      <path class="cls-1" d="M1150.6,198.23v-80.71c0-37.11-19.17-58.44-66.79-58.44s-67.1,24.43-68.34,52.26h37.41c1.24-15.15,10.82-22.26,30.61-22.26,17.62,0,26.59,7.42,26.59,18.86,0,12.06-12.06,14.22-38.34,17.93-35.25,4.95-63.7,16.08-63.7,51.02,0,31.54,22.88,48.55,55.35,48.55,27.21,0,38.65-9.28,46.69-21.34h.62c.93,7.11,2.47,14.53,4.95,17.63h40.51v-1.55c-3.71-2.78-5.57-9.9-5.57-21.95ZM1111.02,165.76c0,15.46-13.3,30.3-37.41,30.3-14.84,0-24.74-5.26-24.74-20.1s10.82-19.79,32.78-24.74c10.51-2.47,21.96-4.95,29.38-9.28v23.81Z"/>
      <path class="cls-1" d="M0,0h97.37c25.74,0,44.97,7.44,57.99,20.78,12.4,12.71,19.85,30.08,19.85,50.55,0,41.86-27.6,70.08-74.12,70.08h-54.58v80.32H0V0ZM46.52,104.82h46.52c23.57,0,35.97-13.02,35.97-33.18s-13.02-32.56-35.35-32.56h-47.14v65.74Z"/>
      <path class="cls-1" d="M1211.74,63.4c4.94,2.89,8.85,6.78,11.74,11.68,2.88,4.91,4.33,10.2,4.33,15.89s-1.44,11.11-4.33,16.01c-2.89,4.9-6.78,8.8-11.68,11.68-4.9,2.89-10.24,4.33-16.01,4.33s-11.11-1.44-16.01-4.33c-4.9-2.88-8.78-6.78-11.62-11.68-2.84-4.9-4.27-10.24-4.27-16.01s1.43-11.11,4.27-16.01c2.85-4.9,6.72-8.78,11.62-11.62,4.9-2.85,10.24-4.27,16.01-4.27s11.01,1.44,15.95,4.33ZM1207.41,111.08c3.56-2.09,6.38-4.92,8.48-8.48,2.09-3.56,3.14-7.43,3.14-11.62s-1.05-7.94-3.14-11.5c-2.1-3.55-4.92-6.38-8.48-8.48-3.56-2.09-7.43-3.15-11.62-3.15s-8.06,1.03-11.62,3.08c-3.56,2.06-6.36,4.86-8.42,8.42-2.06,3.55-3.08,7.43-3.08,11.62s1.03,8.06,3.08,11.62c2.05,3.56,4.86,6.39,8.42,8.48,3.56,2.1,7.43,3.15,11.62,3.15s8.06-1.05,11.62-3.15ZM1209.35,101.86h-6.25l-6.25-7.3h-8.46v7.3h-4.9v-22.59h15.96c2.88,0,5.21.69,6.97,2.07,1.76,1.38,2.64,3.19,2.64,5.43v.09c0,1.99-.56,3.61-1.68,4.86-1.12,1.25-2.71,2.1-4.76,2.54l6.73,7.6ZM1202.81,83.83c-.84-.42-2.21-.62-4.14-.62-.38,0-1.31.03-2.79.09-1.48.06-3.98.1-7.5.1v7.12h10.29c1.92,0,3.3-.19,4.14-.58.83-.39,1.25-1.35,1.25-2.89,0-1.73-.42-2.8-1.25-3.22Z"/>
    </g>
  </g>
</svg>