<?xml version="1.0" encoding="UTF-8"?>
<svg id="Capa_2" xmlns="http://www.w3.org/2000/svg" viewBox="0 0 1360.34 213.78">
  <defs>
    <style>
      .cls-1 {
        fill: #2b2b2b;
      }
    </style>
  </defs>
  <g id="Capa_1-2" data-name="Capa_1">
    <g>
      <path class="cls-1" d="M300.17,187.2v-76.22c0-35.04-18.11-55.19-63.08-55.19s-63.37,23.07-64.54,49.35h35.33c1.17-14.31,10.22-21.03,28.91-21.03,16.64,0,25.11,7.01,25.11,17.81,0,11.39-11.39,13.43-36.21,16.94-33.29,4.67-60.16,15.19-60.16,48.18,0,29.79,21.61,45.85,52.27,45.85,25.7,0,36.5-8.76,44.1-20.15h.58c.88,6.72,2.34,13.73,4.67,16.65h38.26v-1.46c-3.5-2.63-5.26-9.34-5.26-20.73ZM262.79,156.54c0,14.6-12.56,28.62-35.33,28.62-14.02,0-23.36-4.96-23.36-18.98s10.22-18.69,30.95-23.36c9.93-2.34,20.73-4.67,27.74-8.76v22.49Z"/>
      <path class="cls-1" d="M402.09,55.5c-20.44,0-34.17,8.47-44.39,24.53h-.88v-20.44h-38.84v149.81h39.72v-84.98c0-20.44,12.85-34.46,30.37-34.46s25.99,11.39,25.99,27.45v91.99h39.72v-97.83c0-32.71-20.73-56.07-51.69-56.07Z"/>
      <path class="cls-1" d="M518.91,165.3v-79.43h26.48v-26.28h-26.48V12.86h-38.84v46.72h-20.73v26.28h20.73v87.9c0,28.33,21.32,35.92,40.59,35.92,15.77,0,24.82-.58,24.82-.58v-29.2s-6.72.29-11.68.29c-8.76,0-14.89-3.8-14.89-14.89Z"/>
      <path class="cls-1" d="M641.85,55.5c-20.44,0-32.71,7.88-43.51,23.65h-.88V.6h-39.72v208.8h39.72v-84.98c0-20.44,12.85-34.46,30.37-34.46s25.99,11.39,25.99,27.45v91.99h39.72v-97.83c0-32.71-20.73-56.07-51.69-56.07Z"/>
      <path class="cls-1" d="M779.4,55.5c-43.8,0-73.88,34.46-73.88,78.85s28.03,79.43,77.68,79.43c38.55,0,62.2-22.49,67.75-49.06h-39.13c-4.38,11.39-13.43,18.4-28.91,18.4-22.49,0-35.34-14.31-38.26-37.38h108.63c0-53.44-25.7-90.24-73.88-90.24ZM745.23,118.29c3.5-19.57,13.72-32.12,34.75-32.12,18.1,0,30.66,13.14,31.83,32.12h-66.58Z"/>
      <path class="cls-1" d="M905.56,83.53h-.88v-23.95h-38.25v149.81h39.72v-73.01c0-31.54,18.69-45.26,44.68-42.63h.88v-34.75c-2.34-.88-4.97-1.17-9.35-1.17-17.52,0-27.74,8.76-36.79,25.7Z"/>
      <path class="cls-1" d="M1086.62,187.2v-76.22c0-35.04-18.11-55.19-63.08-55.19s-63.37,23.07-64.54,49.35h35.33c1.17-14.31,10.22-21.03,28.91-21.03,16.64,0,25.11,7.01,25.11,17.81,0,11.39-11.39,13.43-36.21,16.94-33.29,4.67-60.16,15.19-60.16,48.18,0,29.79,21.61,45.85,52.27,45.85,25.7,0,36.5-8.76,44.1-20.15h.58c.88,6.72,2.34,13.73,4.67,16.65h38.26v-1.46c-3.5-2.63-5.26-9.34-5.26-20.73ZM1049.24,156.54c0,14.6-12.56,28.62-35.33,28.62-14.02,0-23.36-4.96-23.36-18.98s10.22-18.69,30.95-23.36c9.93-2.34,20.73-4.67,27.74-8.76v22.49Z"/>
      <path class="cls-1" d="M1352.91,167.21c2.28,1.34,4.09,3.13,5.43,5.4,1.33,2.27,2,4.72,2,7.35s-.67,5.14-2,7.41c-1.33,2.27-3.14,4.07-5.4,5.4-2.27,1.34-4.74,2-7.4,2s-5.14-.67-7.4-2c-2.27-1.33-4.06-3.13-5.38-5.4-1.32-2.27-1.97-4.74-1.97-7.41s.66-5.14,1.97-7.4c1.32-2.27,3.11-4.06,5.38-5.38,2.27-1.32,4.73-1.97,7.4-1.97s5.09.67,7.38,2ZM1350.9,189.26c1.65-.97,2.95-2.27,3.92-3.92.97-1.65,1.45-3.44,1.45-5.38s-.49-3.67-1.45-5.32c-.97-1.64-2.28-2.95-3.92-3.92-1.64-.97-3.44-1.45-5.37-1.45s-3.73.48-5.38,1.43c-1.64.95-2.94,2.25-3.89,3.9-.95,1.64-1.43,3.44-1.43,5.37s.48,3.73,1.43,5.38c.95,1.65,2.25,2.95,3.89,3.92,1.65.97,3.44,1.45,5.38,1.45s3.73-.48,5.37-1.45ZM1351.8,184.99h-2.89l-2.89-3.38h-3.91v3.38h-2.27v-10.45h7.38c1.33,0,2.41.32,3.22.96.81.64,1.22,1.47,1.22,2.51v.04c0,.92-.26,1.67-.78,2.25s-1.25.97-2.2,1.18l3.11,3.51ZM1348.77,176.65c-.39-.19-1.02-.29-1.91-.29-.18,0-.61.02-1.29.04-.68.03-1.84.05-3.47.05v3.29h4.76c.89,0,1.53-.09,1.91-.27.38-.18.58-.62.58-1.33,0-.8-.19-1.3-.58-1.49Z"/>
      <g>
        <path class="cls-1" d="M1130.79,192.7v-6.74h19.68v23.76h-6.06l-1.18-5.82c-3.18,4.54-7.96,6.81-14.36,6.81s-11.45-2.1-15.28-6.31c-3.84-4.21-5.75-9.78-5.75-16.71s1.96-12.52,5.88-16.77c3.92-4.17,9.22-6.25,15.9-6.25,5.53,0,10.13,1.4,13.8,4.21,3.63,2.81,5.82,6.62,6.56,11.45h-8.6c-.62-2.6-1.97-4.64-4.05-6.13-2.08-1.49-4.63-2.23-7.64-2.23-4.04,0-7.24,1.4-9.59,4.21-2.35,2.81-3.53,6.64-3.53,11.51s1.2,8.71,3.59,11.51c2.39,2.81,5.67,4.21,9.84,4.21,3.3,0,6.13-.99,8.48-2.97,2.35-1.98,3.63-4.56,3.84-7.74h-11.51Z"/>
        <path class="cls-1" d="M1191.86,198.03l.37,6.56c.04,2.1.5,3.82,1.36,5.14h-8.6c-.74-1.24-1.14-2.99-1.18-5.26l-.19-4.83c-.12-2.68-.73-4.55-1.83-5.6-1.09-1.05-2.84-1.58-5.23-1.58h-10.89v17.27h-8.35v-44.06h19.99c4.91,0,8.73,1.11,11.45,3.34,2.72,2.23,4.08,5.26,4.08,9.1,0,5.28-2.46,8.79-7.36,10.52,2.23.7,3.83,1.81,4.8,3.31.97,1.51,1.49,3.54,1.58,6.1ZM1165.69,172.53v13.37h11.14c2.35,0,4.18-.59,5.48-1.76,1.3-1.18,1.95-2.88,1.95-5.11,0-2.1-.67-3.71-2.01-4.83-1.34-1.11-3.25-1.67-5.72-1.67h-10.83Z"/>
        <path class="cls-1" d="M1218.96,210.71c-6.6,0-11.92-2.1-15.97-6.31-4.04-4.25-6.06-9.82-6.06-16.71s2.02-12.46,6.06-16.71c4.04-4.21,9.36-6.31,15.97-6.31s11.92,2.11,15.96,6.31c4,4.17,6,9.74,6,16.71s-2,12.54-6,16.71c-4.04,4.21-9.37,6.31-15.96,6.31ZM1205.66,187.69c0,4.83,1.22,8.64,3.65,11.45,2.43,2.81,5.65,4.21,9.65,4.21s7.28-1.4,9.72-4.21c2.39-2.76,3.59-6.58,3.59-11.45s-1.2-8.68-3.59-11.45c-2.43-2.8-5.67-4.21-9.72-4.21s-7.22,1.4-9.65,4.21c-2.43,2.81-3.65,6.62-3.65,11.45Z"/>
        <path class="cls-1" d="M1264.45,210.65c-5.73,0-10.24-1.54-13.52-4.61-3.28-3.07-4.92-7.37-4.92-12.9v-27.47h8.35v27.53c0,3.34.87,5.88,2.6,7.61,1.73,1.73,4.23,2.6,7.49,2.6s5.75-.87,7.49-2.6c1.73-1.73,2.6-4.27,2.6-7.61v-27.53h8.35v27.47c0,5.61-1.63,9.93-4.89,12.96-3.26,3.03-7.78,4.55-13.55,4.55Z"/>
        <path class="cls-1" d="M1289.75,165.66h19.37c4.91,0,8.73,1.29,11.48,3.87,2.74,2.58,4.12,6.07,4.12,10.49s-1.37,7.85-4.12,10.43c-2.74,2.58-6.57,3.87-11.48,3.87h-11.01v15.41h-8.35v-44.06ZM1298.11,187.14h10.64c2.43,0,4.3-.61,5.6-1.83,1.3-1.22,1.95-2.98,1.95-5.29s-.65-4.08-1.95-5.32c-1.3-1.24-3.17-1.86-5.6-1.86h-10.64v14.3Z"/>
      </g>
      <path class="cls-1" d="M0,0h91.96c24.31,0,42.47,7.03,54.77,19.62,11.71,12.01,18.74,28.41,18.74,47.74,0,39.54-26.06,66.19-69.99,66.19h-51.54v75.85H0V0ZM43.93,98.99h43.93c22.26,0,33.97-12.3,33.97-31.34s-12.3-30.75-33.39-30.75h-44.52v62.09Z"/>
    </g>
  </g>
</svg>