<?xml version="1.0" encoding="UTF-8"?>
<svg version="1.1" xmlns="http://www.w3.org/2000/svg" width="441" height="576">
<path d="M0 0 C40.63125 -0.020625 81.2625 -0.04125 123.125 -0.0625 C135.9242627 -0.071604 148.72352539 -0.08070801 161.91064453 -0.09008789 C177.61694336 -0.09460449 177.61694336 -0.09460449 184.98458862 -0.09544373 C190.09779226 -0.0963702 195.21098784 -0.10001243 200.32418823 -0.10557556 C206.87065983 -0.11268738 213.41712073 -0.11447998 219.96359611 -0.11307228 C222.35098154 -0.11336612 224.73836756 -0.11531262 227.12574983 -0.11921513 C264.5456968 -0.17748236 264.5456968 -0.17748236 282.8125 2.1875 C283.78840088 2.31278076 284.76430176 2.43806152 285.76977539 2.56713867 C316.84197207 6.87454328 347.6504552 17.18118538 373 36 C373.92425781 36.68191406 374.84851563 37.36382812 375.80078125 38.06640625 C411.69498284 66.09047179 434.315122 108.04070484 440.26463318 152.99977112 C440.9168991 158.4570924 441.1731494 163.83448592 441.203125 169.328125 C441.21013931 170.19124802 441.21715363 171.05437103 441.22438049 171.94364929 C441.24178556 174.71248652 441.24823216 177.48111009 441.25 180.25 C441.25067474 181.19440948 441.25134949 182.13881897 441.25204468 183.11184692 C441.23669258 196.60892302 441.00604521 209.78219925 438 223 C437.82839355 223.78165527 437.65678711 224.56331055 437.47998047 225.36865234 C430.52398894 256.23236812 416.91486777 283.08900187 395 306 C394.38125 306.6703125 393.7625 307.340625 393.125 308.03125 C369.96732545 332.34680828 336.59541619 346.29088393 304.25 352.875 C303.31881348 353.06594238 302.38762695 353.25688477 301.42822266 353.45361328 C280.67676053 357.37495348 259.89468808 357.27599019 238.87504101 357.20278788 C234.61235904 357.19012119 230.34967298 357.18909766 226.0869751 357.18673706 C218.04818993 357.18056841 210.00946042 357.16422141 201.97069955 357.14403808 C192.804759 357.12153371 183.63881552 357.11064943 174.47285414 357.10064721 C155.64853165 357.07985 136.82428525 357.04323294 118 357 C118 377.46 118 397.92 118 419 C79.06 419 40.12 419 0 419 C0 280.73 0 142.46 0 0 Z M118 100 C118 154.12 118 208.24 118 264 C149.370625 264.0928125 149.370625 264.0928125 181.375 264.1875 C187.94583496 264.21481201 194.51666992 264.24212402 201.28662109 264.27026367 C207.24592356 264.28030525 207.24592356 264.28030525 213.20523071 264.28633118 C215.83212061 264.29089776 218.45855665 264.30020315 221.08535767 264.31672668 C249.79624032 264.48915408 277.24427958 262.64885084 300 243 C300.67804688 242.41734375 301.35609375 241.8346875 302.0546875 241.234375 C315.69501002 228.60248099 323.12592374 209.37614152 324.16845703 191.03662109 C325.04790657 166.59233951 322.25217692 143.04012576 304.88720703 124.36767578 C287.73704792 106.73020185 264.42147627 100.06125937 240.37676239 99.57668304 C234.25833131 99.52783941 228.14205572 99.54496063 222.02371216 99.59487915 C218.71292904 99.61805741 215.40216288 99.61875281 212.09130859 99.62158203 C202.47746626 99.64237783 192.8637254 99.69822215 183.25 99.75 C161.7175 99.8325 140.185 99.915 118 100 Z " fill="#F5F5F5" transform="translate(0,0)"/>
<path d="M0 0 C38.94 0 77.88 0 118 0 C118 38.94 118 77.88 118 118 C79.06 118 40.12 118 0 118 C0 79.06 0 40.12 0 0 Z " fill="#E1E58D" transform="translate(0,458)"/>
<path d="M0 0 C12.70093473 9.42327416 20.65793644 22.81033249 23.54296875 38.32421875 C25.38205898 56.54074205 21.18131832 72.44513936 9.85546875 87.01171875 C-0.58708645 98.3707748 -14.75408794 105.91938141 -30.21875 106.66015625 C-49.00327609 107.00361453 -63.18762612 102.76828015 -77.13671875 89.671875 C-88.56560244 78.1083075 -94.29470932 63.98839888 -94.76953125 47.63671875 C-94.13944482 33.6172956 -89.82120441 21.57414438 -81.45703125 10.32421875 C-80.37421875 8.80828125 -80.37421875 8.80828125 -79.26953125 7.26171875 C-59.24325237 -15.77170105 -23.89812975 -16.29936036 0 0 Z M-67.20703125 20.07421875 C-74.72805527 29.27045926 -77.90360052 39.42971478 -77.39453125 51.26171875 C-76.15236476 62.17302213 -71.27649599 71.65078816 -63.45703125 79.32421875 C-52.17741096 88.15464527 -41.51177545 90.56393355 -27.45703125 89.32421875 C-16.41085021 86.90743996 -6.98169051 80.51731721 -0.45703125 71.32421875 C5.71187275 60.9008982 8.14976918 50.69497086 6.078125 38.61328125 C3.60708884 29.34324029 -1.64793366 20.07333026 -9.45703125 14.32421875 C-29.17675528 3.19283607 -50.68498643 2.41272257 -67.20703125 20.07421875 Z " fill="#F5F5F5" transform="translate(298.45703125,469.67578125)"/>
<path d="M0 0 C7.8890625 -0.0928125 7.8890625 -0.0928125 15.9375 -0.1875 C17.578396 -0.21481201 19.21929199 -0.24212402 20.90991211 -0.27026367 C37.95933093 -0.36722423 37.95933093 -0.36722423 45 5.5 C48.32842572 9.66053215 48.55726783 13.83260736 48 19 C45.96911189 23.7031093 42.56421761 26.71789119 38 29 C38.47050781 29.53109375 38.94101562 30.0621875 39.42578125 30.609375 C40.04839844 31.31578125 40.67101562 32.0221875 41.3125 32.75 C41.92738281 33.44609375 42.54226563 34.1421875 43.17578125 34.859375 C48 40.52034261 48 40.52034261 48 43 C43.80810598 43.71305414 40.17307535 43.90506323 36 43 C31.53228096 39.44334524 27.57592668 35.15185336 25 30 C22.45058627 29.68758629 19.99638487 29.48696579 17.4375 29.375 C16.72658203 29.33632813 16.01566406 29.29765625 15.28320312 29.2578125 C13.52257575 29.16328217 11.76132272 29.08054183 10 29 C10 33.62 10 38.24 10 43 C6.7 43 3.4 43 0 43 C0 28.81 0 14.62 0 0 Z M10 9 C10 12.96 10 16.92 10 21 C13.91739994 21.10781835 17.831841 21.18723773 21.75 21.25 C22.86117188 21.28351562 23.97234375 21.31703125 25.1171875 21.3515625 C26.18710937 21.36445312 27.25703125 21.37734375 28.359375 21.390625 C29.34389648 21.41157227 30.32841797 21.43251953 31.34277344 21.45410156 C34.75290477 20.8713338 35.93755141 19.73068685 38 17 C37.85205998 13.3014996 37.64194427 11.64194427 35 9 C32.3784358 8.72172748 32.3784358 8.72172748 29.3359375 8.8046875 C27.65371094 8.81435547 27.65371094 8.81435547 25.9375 8.82421875 C24.761875 8.84097656 23.58625 8.85773438 22.375 8.875 C21.19164062 8.88402344 20.00828125 8.89304687 18.7890625 8.90234375 C15.85928943 8.92597095 12.92961986 8.96184287 10 9 Z " fill="#F5F5F5" transform="translate(240,495)"/>
</svg>
